HIERARCHY
ROOT Hips
{
	OFFSET	0.00	0.00	0.00
	CHANNELS 6 Xposition Yposition Zposition Zrotation Xrotation Yrotation
	JOINT LeftUpLeg
	{
		OFFSET	 0.126116	-0.014019	-0.065224
		CHANNELS 3 Zrotation Xrotation Yrotation
		JOINT LeftLeg
		{
			OFFSET	 0.000000	 0.000000	 0.569914
			CHANNELS 3 Zrotation Xrotation Yrotation
			JOINT LeftFoot
			{
				OFFSET	 0.000000	 0.000000	 0.544423
				CHANNELS 3 Zrotation Xrotation Yrotation
				JOINT LeftToeBase
				{
					OFFSET	 0.000000	 0.000000	 0.207117
					CHANNELS 3 Zrotation Xrotation Yrotation
					End Site
					{
						OFFSET	 0.000000	 0.000000	 0.207117
					}
				}
			}
		}
	}
	JOINT RightUpLeg
	{
		OFFSET	-0.124023	-0.008373	-0.065224
		CHANNELS 3 Zrotation Xrotation Yrotation
		JOINT RightLeg
		{
			OFFSET	 0.000000	 0.000000	 0.570047
			CHANNELS 3 Zrotation Xrotation Yrotation
			JOINT RightFoot
			{
				OFFSET	 0.000000	 0.000000	 0.544354
				CHANNELS 3 Zrotation Xrotation Yrotation
				JOINT RightToeBase
				{
					OFFSET	 0.000000	 0.000000	 0.207540
					CHANNELS 3 Zrotation Xrotation Yrotation
					End Site
					{
						OFFSET	 0.000000	 0.000000	 0.207540
					}
				}
			}
		}
	}
	JOINT Spine
	{
		OFFSET	 0.000184	-0.007763	 0.117403
		CHANNELS 3 Zrotation Xrotation Yrotation
		JOINT Spine1
		{
			OFFSET	 0.000000	 0.000000	 0.137269
			CHANNELS 3 Zrotation Xrotation Yrotation
			JOINT Spine2
			{
				OFFSET	 0.000000	 0.000000	 0.156879
				CHANNELS 3 Zrotation Xrotation Yrotation
				JOINT LeftShoulder
				{
					OFFSET	 0.080501	-0.002496	 0.160144
					CHANNELS 3 Zrotation Xrotation Yrotation
					JOINT LeftArm
					{
						OFFSET	 0.000000	 0.000000	 0.164363
						CHANNELS 3 Zrotation Xrotation Yrotation
						JOINT LeftForeArm
						{
							OFFSET	 0.000000	 0.000000	 0.364576
							CHANNELS 3 Zrotation Xrotation Yrotation
							JOINT LeftHand
							{
								OFFSET	 0.000000	 0.000000	 0.360812
								CHANNELS 3 Zrotation Xrotation Yrotation
								JOINT LeftHandIndex1
								{
									OFFSET	 0.000000	 0.000000	 0.086006
									CHANNELS 3 Zrotation Xrotation Yrotation
									JOINT LeftHandIndex2
									{
										OFFSET	 0.000000	 0.000000	 0.047237
										CHANNELS 3 Zrotation Xrotation Yrotation
										JOINT LeftHandIndex3
										{
											OFFSET	-0.004284	-0.000551	 0.038165
											CHANNELS 3 Zrotation Xrotation Yrotation
											End Site
											{
												OFFSET	-0.004284	-0.000551	 0.038165
											}
										}
									}
								}
							}
						}
					}
				}
				JOINT Neck
				{
					OFFSET	 0.000000	 0.000000	 0.176489
					CHANNELS 3 Zrotation Xrotation Yrotation
					JOINT Head
					{
						OFFSET	 0.000000	-0.001747	 0.077940
						CHANNELS 3 Zrotation Xrotation Yrotation
						End Site
						{
							OFFSET	 0.000000	-0.001747	 0.077940
						}
					}
				}
				JOINT RightShoulder
				{
					OFFSET	-0.080363	 0.000306	 0.159706
					CHANNELS 3 Zrotation Xrotation Yrotation
					JOINT RightArm
					{
						OFFSET	 0.000000	 0.000000	 0.164196
						CHANNELS 3 Zrotation Xrotation Yrotation
						JOINT RightForeArm
						{
							OFFSET	 0.000000	 0.000000	 0.365611
							CHANNELS 3 Zrotation Xrotation Yrotation
							JOINT RightHand
							{
								OFFSET	 0.000000	 0.000000	 0.360648
								CHANNELS 3 Zrotation Xrotation Yrotation
								JOINT RightHandIndex1
								{
									OFFSET	 0.000000	 0.000000	 0.069977
									CHANNELS 3 Zrotation Xrotation Yrotation
									JOINT RightHandIndex2
									{
										OFFSET	 0.000000	 0.000000	 0.052305
										CHANNELS 3 Zrotation Xrotation Yrotation
										JOINT RightHandIndex3
										{
											OFFSET	 0.009002	-0.000782	 0.042196
											CHANNELS 3 Zrotation Xrotation Yrotation
											End Site
											{
												OFFSET	 0.009002	-0.000782	 0.042196
											}
										}
									}
								}
							}
						}
					}
				}
			}
		}
	}
}
MOTION
Frames:    8
Frame Time: 0.03333334
-0.719968	-1.661438	 1.275213	-178.299200	 4.303803	 0.242631	-6.538359	-6.192881	 178.520100	 0.699304	-11.759890	 0.540759	-23.706400	 61.800000	 10.976400	-2.385833	 28.452760	 0.000004	-3.291497	-7.812484	 179.972600	-7.939462	-14.805160	 0.757233	 21.536250	 72.496730	-10.509590	 2.384659	 28.388700	-0.000001	-0.888626	 5.438850	 0.902829	-1.050958	-7.132458	-13.066970	 2.137075	-7.377404	 16.532000	-91.776200	 78.527350	-180.000000	-20.777420	-5.887013	-4.086154	-6.414472	-5.199308	-30.836710	 8.201970	-15.944490	-5.188362	-4.131196	 21.524690	 0.986298	-5.167839	 0.733520	 3.519257	-1.378229	 35.397820	-2.634230	 1.263970	 3.688929	-0.123445	-15.839030	-3.275915	-3.296207	 89.782100	 78.203890	 180.000000	 5.956874	 1.426064	-4.202909	-0.301265	-9.146143	 34.281640	-2.543325	 19.711360	 25.787930	 5.715225	 19.176060	-3.692089	 5.027514	 0.245388	-9.378011	-2.350882	 35.473990	 5.254307
-0.720082	-1.661310	 1.275316	-178.146200	 4.560090	 0.156838	-6.373797	-6.449960	 178.572700	 0.371959	-11.713060	 0.472061	-23.063010	 61.092740	 10.765740	-2.385833	 28.452760	 0.000004	-3.563716	-8.164334	-179.959000	-7.164101	-14.947760	 0.964992	 18.986840	 72.776540	-8.530352	 2.384659	 28.388700	-0.000001	-1.111047	 5.810994	 1.076445	-1.074802	-8.378839	-13.448300	 2.088397	-6.867978	 16.860490	-91.776270	 78.527360	-179.999900	-22.426660	-5.289817	-4.261515	-6.385780	-5.291713	-31.197220	 8.243932	-16.037470	-5.128963	-4.131196	 21.524690	 0.986298	-5.167839	 0.733520	 3.519257	-1.378229	 35.397820	-2.634230	 1.361112	 4.259923	-0.139569	-15.822660	-4.211293	-3.630626	 89.782110	 78.203900	 180.000000	 6.332030	 1.751137	-4.377299	-0.872198	-9.648909	 34.519550	-2.800455	 21.842800	 28.021640	 5.715225	 19.176060	-3.692089	 5.027514	 0.245388	-9.378011	-2.350882	 35.473990	 5.254307
-0.719728	-1.659723	 1.275544	-177.312900	 5.691434	-0.637388	-5.290620	-7.655153	 179.154600	-0.744667	-11.856070	 0.248110	-20.535800	 57.519820	 10.013170	-2.385833	 28.452760	 0.000004	-3.400745	-10.109370	-179.211100	-4.694418	-16.196520	 1.737281	 7.030661	 76.638130	 2.095226	 2.384659	 28.388700	-0.000001	-2.453146	 7.131809	 1.989400	-1.429593	-13.076930	-14.557610	 1.863919	-4.987259	 17.803330	-91.776210	 78.527420	-180.000000	-31.242200	-0.789310	-3.127257	-7.036602	-6.038390	-36.797220	 7.697016	-16.776740	-4.769176	-4.131196	 21.524690	 0.986298	-5.167839	 0.733520	 3.519257	-1.378229	 35.397820	-2.634230	 1.653446	 6.839792	 0.087111	-15.678470	-8.111509	-4.954282	 89.782100	 78.203890	 180.000000	 8.094687	 4.013558	-6.176226	-2.639904	-12.444670	 37.932850	-3.236995	 32.280690	 37.101700	 5.715225	 19.176060	-3.692089	 5.027514	 0.245388	-9.378011	-2.350882	 35.473990	 5.254307
-0.718906	-1.658464	 1.275360	-177.024300	 5.961070	-1.140516	-4.798749	-8.044025	 179.532000	-0.796688	-12.313960	 0.246449	-20.245820	 56.580130	 10.056560	-2.385833	 28.452760	 0.000004	-2.337372	-10.875470	-178.652900	-4.764280	-17.009900	 1.801318	 4.487359	 79.063390	 4.963420	 2.384659	 28.388700	-0.000001	-3.044780	 7.335282	 2.392473	-1.724923	-13.822280	-14.540790	 1.820413	-4.684966	 17.703380	-91.776210	 78.527380	-180.000000	-33.519360	 1.342743	-1.318392	-7.774186	-6.400575	-41.166380	 7.129659	-17.128010	-4.638785	-4.131196	 21.524690	 0.986298	-5.167839	 0.733520	 3.519257	-1.378229	 35.397820	-2.634230	 1.620338	 7.413324	 0.341953	-15.568070	-8.762843	-5.132351	 89.782080	 78.203870	 180.000000	 8.351281	 5.231907	-7.403908	-2.352571	-13.489130	 40.719810	-2.437863	 35.394870	 38.160200	 5.715225	 19.176060	-3.692089	 5.027514	 0.245388	-9.378011	-2.350882	 35.473990	 5.254307
-0.716855	-1.655352	 1.274825	-176.622000	 6.354862	-1.858952	-4.136715	-8.948750	 179.910400	-0.605519	-14.132110	 0.328848	-20.780320	 55.687120	 11.020000	-2.385833	 28.452760	 0.000004	-0.501395	-12.159640	-177.722200	-5.127888	-18.352350	 1.823069	 0.163587	 82.744420	 9.897798	 2.384659	 28.388700	-0.000001	-4.139137	 7.380054	 2.989978	-2.478505	-14.093890	-14.960890	 1.891673	-4.602997	 17.792790	-91.776180	 78.527420	-180.000000	-35.916480	 5.392681	 2.894309	-9.259905	-7.042676	-50.475660	 6.267922	-17.690880	-4.445424	-4.131196	 21.524690	 0.986298	-5.167839	 0.733520	 3.519257	-1.378229	 35.397820	-2.634230	 1.541376	 8.108362	 0.765669	-15.391300	-9.458329	-5.292840	 89.782100	 78.203900	 180.000000	 8.070529	 8.000705	-10.051900	-1.119768	-15.450040	 47.066100	-0.408244	 38.568330	 37.658620	 5.715225	 19.176060	-3.692089	 5.027514	 0.245388	-9.378011	-2.350882	 35.473990	 5.254307
-0.713925	-1.651009	 1.273932	-176.499300	 6.436085	-2.174598	-4.094185	-9.801188	 179.712900	 0.338384	-17.094560	 0.673609	-23.415740	 56.057000	 13.494570	-2.385833	 28.452760	 0.000004	 1.283266	-13.492440	-177.101300	-6.068378	-20.231250	 1.674420	 10.443980	 85.525870	 0.393013	 2.384659	 28.388700	-0.000001	-5.160277	 6.858895	 3.287579	-3.525207	-12.063260	-15.931660	 2.264406	-5.540557	 18.211320	-91.776150	 78.527400	 180.000000	-33.952770	 9.083532	 7.683631	-10.848190	-7.544064	-60.870850	 5.774072	-17.969930	-4.358628	-4.131196	 21.524690	 0.986298	-5.167839	 0.733520	 3.519257	-1.378229	 35.397820	-2.634230	 1.428313	 7.998009	 1.106142	-15.252430	-9.009167	-5.088277	 89.782080	 78.203900	-180.000000	 6.183249	 11.475290	-12.826270	 1.153985	-16.950670	 54.765740	 1.445711	 36.092540	 33.093540	 5.715225	 19.176060	-3.692089	 5.027514	 0.245388	-9.378011	-2.350882	 35.473990	 5.254307
-0.710334	-1.645355	 1.272902	-176.409400	 6.582489	-2.444667	-4.365171	-10.558230	 179.307600	 1.397066	-20.216730	 1.158550	-26.575330	 56.591270	 16.498970	-2.385833	 28.452760	 0.000004	 2.654665	-15.276040	-176.414000	-6.763983	-22.552440	 1.588736	 35.587940	 87.105180	-24.204900	 2.384659	 28.388700	-0.000001	-6.462196	 6.171395	 3.514012	-4.841781	-9.289798	-17.303650	 2.854514	-6.889765	 19.013150	-91.776110	 78.527350	 179.999900	-31.455850	 14.014470	 11.636720	-12.379450	-7.672310	-70.883810	 5.256090	-18.250200	-4.284379	-4.131196	 21.524690	 0.986298	-5.167839	 0.733520	 3.519257	-1.378229	 35.397820	-2.634230	 1.390985	 7.958376	 1.321309	-15.147230	-8.796696	-4.986718	 89.782070	 78.203890	-180.000000	 3.825635	 16.260220	-15.260930	 3.648896	-18.201490	 62.773830	 2.138387	 32.572670	 29.191890	 5.715225	 19.176060	-3.692089	 5.027514	 0.245388	-9.378011	-2.350882	 35.473990	 5.254307
-0.705940	-1.637829	 1.271788	-176.379700	 6.836559	-2.596953	-5.252657	-11.142980	 178.585100	 2.640924	-23.478990	 1.833234	-30.637730	 57.080720	 20.474870	-2.385833	 28.452760	 0.000004	 3.122826	-17.533640	-175.690900	-6.927157	-24.992100	 1.680833	 49.916400	 86.144150	-38.552490	 2.384659	 28.388700	-0.000001	-8.151596	 5.194332	 3.510088	-6.493035	-5.311779	-19.080770	 3.863133	-8.918174	 20.376220	-91.776210	 78.527380	 180.000000	-27.768270	 20.572830	 13.389610	-13.636190	-7.378811	-79.312020	 4.668170	-18.548470	-4.218035	-4.131196	 21.524690	 0.986298	-5.167839	 0.733520	 3.519257	-1.378229	 35.397820	-2.634230	 1.518427	 8.075282	 1.278978	-15.104940	-9.092295	-5.100523	 89.782100	 78.203870	 180.000000	 0.672420	 22.948980	-16.759630	 6.081495	-19.140960	 70.333240	 0.782749	 27.804440	 26.782340	 5.715225	 19.176060	-3.692089	 5.027514	 0.245388	-9.378011	-2.350882	 35.473990	 5.254307
